13Hrs (2010) 1080p MKV x264 AC3 NLSubs-DMT

13Hrs (2010) NTSC

Verenigd Koninkrijk
Horror / Actie
90 minuten

geregisseerd door Jonathan Glendening
met Tom Felton, Gemma Atkinson en John Lynch

Het is volle maan en hoog in de donkere wolken onweert het.
Sarah Tyler keert terug haar familiehuis, dat op een afgelegen plattelandsgebied ligt.
De storm is nog niet opgehouden, dus Sarah, haar vrienden en haar familie, maken zich klaar voor de nacht.
Maar dan verschijnt er iets uit de donkere nacht, iets met een duister geheim. Sarah en de rest moeten nu zien te overleven.

PLOT

Sarah Tyler returns to her troubled family home in the isolated countryside, for a much put-off visit.
As a storm rages outside, Sarah, her family and friends shore up for the night, cut off from the outside world.
But something comes out of the driving rain and darkness. Something that holds a dark secret so
devastating that, in one night, it could wipe out the entire family. 
 
http://www.youtube.com/watch?v=lO4_r7WZWcM

MM:    http://www.moviemeter.nl/film/62436

IMDB:    http://www.imdb.com/title/tt1411232/

INFO

Release name.......: 13Hrs.2010.1080p.BluRay.x264-MeTH
Source.............: BluRay
Resolution.........: 1920 x 1080 (WS)
Video bitrate......: 10200 Kbps avg
Framerate..........: 23.97 fps 
Menu...............: None
Audio..............: Engels AC3 @ 640 Kbps
Subtitles..........: NL cust. By Fast Gollums Twilight Release Team, geheel op audio, topklus team!!!
Controle...........: Dejevu
Bewerking..........: Dejavu

Thanks To Gollums-Team, Twilight Release en het Fast-Release Team.

Enjoy

PLayer

General
Complete name                    : 13Hrs.2010.1080p.MKV.x264.AC3.NLSubs-DMT.mkv
Format                           : Matroska
File size                        : 6.56 GiB
Duration                         : 1h 24mn
Overall bit rate                 : 11.1 Mbps
Encoded date                     : UTC 2010-11-03 19:27:06
Writing application              : mkvmerge v3.1.0 ('Happy up here') built on Jan 19 2010 12:09:24
Writing library                  : libebml v0.7.9 + libmatroska v0.8.1

Video
ID                               : 1
Format                           : AVC
Format/Info                      : Advanced Video Codec
Format profile                   : High@L4.1
Format settings, CABAC           : Yes
Format settings, ReFrames        : 4 frames
Format settings, GOP             : M=4, N=32
Muxing mode                      : Container profile=Unknown@4.1
Codec ID                         : V_MPEG4/ISO/AVC
Duration                         : 1h 24mn
Bit rate                         : 10.4 Mbps
Width                            : 1 920 pixels
Height                           : 1 080 pixels
Display aspect ratio             : 16:9
Frame rate                       : 23.976 fps
Color space                      : YUV
Chroma subsampling               : 4:2:0
Bit depth                        : 8 bits
Scan type                        : Progressive
Bits/(Pixel*Frame)               : 0.210
Stream size                      : 6.05 GiB (92%)
Writing library                  : x264 core 107 r1745 4785e8e
Encoding settings                : cabac=1 / ref=4 / deblock=1:0:0 / analyse=0x3:0x133 / 
me=umh / subme=7 / psy=1 / psy_rd=1.00:0.00 / mixed_ref=1 / me_range=16 / chroma_me=1 / 
trellis=1 / 8x8dct=1 / cqm=0 / deadzone=21,11 / fast_pskip=0 / chroma_qp_offset=-2 / 
threads=12 / sliced_threads=0 / nr=0 / decimate=1 / interlaced=0 / constrained_intra=0 / 
bframes=3 / b_pyramid=2 / b_adapt=1 / b_bias=0 / direct=1 / weightb=1 / open_gop=0 / 
weightp=2 / keyint=250 / keyint_min=23 / scenecut=40 / intra_refresh=0 / rc_lookahead=40 / 
rc=2pass / mbtree=1 / bitrate=10419 / ratetol=1.0 / qcomp=0.60 / qpmin=10 / qpmax=51 / 
qpstep=4 / cplxblur=20.0 / qblur=0.5 / ip_ratio=1.40 / aq=1:1.00
Language                         : English

Audio
ID                               : 2
Format                           : AC-3
Format/Info                      : Audio Coding 3
Mode extension                   : CM (complete main)
Codec ID                         : A_AC3
Duration                         : 1h 24mn
Bit rate mode                    : Constant
Bit rate                         : 640 Kbps
Channel(s)                       : 6 channels
Channel positions                : Front: L C R, Side: L R, LFE
Sampling rate                    : 48.0 KHz
Bit depth                        : 16 bits
Stream size                      : 388 MiB (6%)

Text
ID                               : 3
Format                           : UTF-8
Codec ID                         : S_TEXT/UTF8
Codec ID/Info                    : UTF-8 Plain Text
Language                         : Dutch

